<svg width="14" height="14" viewBox="0 0 14 14" fill="none" xmlns="http://www.w3.org/2000/svg">
<path d="M4.08332 12.8333H2.33332C2.0239 12.8333 1.72716 12.7104 1.50837 12.4916C1.28957 12.2728 1.16666 11.9761 1.16666 11.6667V7.58332C1.16666 7.2739 1.28957 6.97716 1.50837 6.75837C1.72716 6.53957 2.0239 6.41666 2.33332 6.41666H4.08332M8.16666 5.24999V2.91666C8.16666 2.45253 7.98228 2.00741 7.65409 1.67922C7.3259 1.35103 6.88079 1.16666 6.41666 1.16666L4.08332 6.41666V12.8333H10.6633C10.9447 12.8365 11.2177 12.7379 11.4321 12.5557C11.6465 12.3734 11.7878 12.1199 11.83 11.8417L12.635 6.59166C12.6604 6.42445 12.6491 6.25372 12.6019 6.0913C12.5548 5.92889 12.4729 5.77866 12.3619 5.65104C12.2509 5.52342 12.1135 5.42145 11.9592 5.3522C11.8049 5.28295 11.6374 5.24807 11.4683 5.24999H8.16666Z" stroke="#808080" stroke-linecap="round" stroke-linejoin="round"/>
</svg>
