<svg width="14" height="14" viewBox="0 0 14 14" fill="none" xmlns="http://www.w3.org/2000/svg">
<path d="M9.91665 1.16665H11.4742C11.8043 1.16082 12.1251 1.2764 12.3756 1.49146C12.6262 1.70653 12.7891 2.0061 12.8333 2.33332V6.41665C12.7891 6.74387 12.6262 7.04344 12.3756 7.25851C12.1251 7.47357 11.8043 7.58916 11.4742 7.58332H9.91665M5.83332 8.74999V11.0833C5.83332 11.5474 6.0177 11.9926 6.34588 12.3208C6.67407 12.6489 7.11919 12.8333 7.58332 12.8333L9.91665 7.58332V1.16665H3.33665C3.0553 1.16347 2.78227 1.26208 2.56788 1.44432C2.35348 1.62655 2.21218 1.88013 2.16999 2.15832L1.36499 7.40832C1.33961 7.57553 1.35089 7.74626 1.39804 7.90867C1.44519 8.07109 1.52709 8.22132 1.63807 8.34894C1.74905 8.47656 1.88644 8.57853 2.04074 8.64778C2.19503 8.71703 2.36254 8.7519 2.53165 8.74999H5.83332Z" stroke="#808080" stroke-linecap="round" stroke-linejoin="round"/>
</svg>
