<?xml version="1.0" encoding="UTF-8"?>
<svg xmlns="http://www.w3.org/2000/svg" xmlns:xlink="http://www.w3.org/1999/xlink" width="375pt" height="374.999991pt" viewBox="0 0 375 374.999991" version="1.2">
<defs>
<clipPath id="clip1">
  <path d="M 160 127.757812 L 275.382812 127.757812 L 275.382812 216 L 160 216 Z M 160 127.757812 "/>
</clipPath>
</defs>
<g id="surface1">
<path style=" stroke:none;fill-rule:nonzero;fill:rgb(11.369324%,20.779419%,34.118652%);fill-opacity:1;" d="M 194.597656 162.125 L 194.597656 158.832031 L 120.285156 158.832031 C 114.707031 158.832031 109.621094 161.097656 105.96875 164.742188 C 102.304688 168.382812 100.03125 173.449219 100.039062 179.011719 L 100.039062 209.839844 C 100.039062 214.507812 101.644531 218.835938 104.328125 222.257812 C 107.011719 225.675781 110.78125 228.214844 115.125 229.351562 L 115.960938 226.164062 L 113.101562 227.8125 L 122.097656 243.332031 C 122.785156 244.519531 123.777344 245.46875 124.886719 246.082031 C 126.003906 246.699219 127.234375 246.996094 128.457031 246.996094 C 129.679688 246.996094 130.917969 246.695312 132.027344 246.082031 C 133.144531 245.46875 134.136719 244.527344 134.816406 243.332031 L 142.53125 230.011719 L 194.597656 230.011719 C 200.179688 230.011719 205.261719 227.746094 208.917969 224.101562 C 212.582031 220.457031 214.847656 215.390625 214.847656 209.832031 L 214.847656 179.015625 C 214.847656 173.457031 212.574219 168.390625 208.917969 164.746094 C 205.261719 161.097656 200.179688 158.832031 194.597656 158.835938 L 194.597656 165.417969 C 198.375 165.417969 201.765625 166.933594 204.242188 169.398438 C 206.714844 171.867188 208.238281 175.25 208.238281 179.011719 L 208.238281 209.839844 C 208.238281 213.601562 206.714844 216.980469 204.242188 219.449219 C 201.765625 221.914062 198.375 223.429688 194.597656 223.429688 L 138.71875 223.429688 L 129.09375 240.058594 C 129 240.210938 128.921875 240.277344 128.820312 240.335938 C 128.722656 240.386719 128.589844 240.429688 128.449219 240.429688 C 128.3125 240.429688 128.1875 240.394531 128.082031 240.335938 C 127.980469 240.277344 127.902344 240.210938 127.808594 240.058594 L 118.125 223.34375 L 116.789062 222.996094 C 113.875 222.230469 111.328125 220.523438 109.515625 218.210938 C 107.707031 215.898438 106.632812 213.011719 106.628906 209.851562 L 106.628906 179.015625 C 106.628906 175.253906 108.148438 171.875 110.621094 169.40625 C 113.101562 166.941406 116.492188 165.425781 120.265625 165.425781 L 194.585938 165.425781 L 194.585938 162.125 "/>
<g clip-path="url(#clip1)" clip-rule="nonzero">
<path style=" stroke:none;fill-rule:nonzero;fill:rgb(94.509888%,98.039246%,93.328857%);fill-opacity:1;" d="M 255.054688 127.753906 C 255.054688 127.753906 255.046875 127.753906 255.046875 127.753906 L 180.730469 127.753906 C 175.148438 127.753906 170.058594 130.019531 166.410156 133.664062 C 162.746094 137.304688 160.472656 142.371094 160.480469 147.933594 L 160.480469 158.832031 L 167.089844 158.832031 L 167.089844 147.933594 C 167.089844 144.171875 168.613281 140.792969 171.082031 138.320312 C 173.5625 135.855469 176.953125 134.339844 180.730469 134.339844 L 255.046875 134.339844 C 258.824219 134.339844 262.214844 135.855469 264.695312 138.320312 C 267.167969 140.792969 268.6875 144.171875 268.6875 147.933594 L 268.6875 178.765625 C 268.6875 181.929688 267.609375 184.816406 265.796875 187.128906 C 263.984375 189.441406 261.441406 191.148438 258.527344 191.910156 L 257.195312 192.261719 L 247.511719 208.976562 C 247.417969 209.125 247.339844 209.191406 247.242188 209.25 C 247.140625 209.304688 247.007812 209.34375 246.871094 209.34375 C 246.730469 209.34375 246.601562 209.3125 246.5 209.25 C 246.402344 209.191406 246.320312 209.125 246.230469 208.976562 L 236.605469 192.359375 L 214.847656 192.359375 L 214.847656 198.949219 L 232.78125 198.949219 L 240.496094 212.269531 C 241.183594 213.453125 242.175781 214.402344 243.289062 215.015625 C 244.40625 215.628906 245.632812 215.933594 246.859375 215.933594 C 248.082031 215.933594 249.308594 215.628906 250.425781 215.015625 C 251.542969 214.402344 252.535156 213.460938 253.21875 212.269531 L 261.558594 197.875 C 265.328125 196.59375 268.59375 194.242188 270.988281 191.1875 C 273.671875 187.765625 275.277344 183.4375 275.277344 178.765625 L 275.277344 147.933594 C 275.277344 142.371094 273.003906 137.304688 269.347656 133.664062 C 265.710938 130.019531 260.628906 127.753906 255.054688 127.753906 "/>
</g>
<path style=" stroke:none;fill-rule:nonzero;fill:rgb(11.369324%,20.779419%,34.118652%);fill-opacity:1;" d="M 214.855469 192.367188 L 211.550781 192.367188 C 209.722656 192.367188 208.242188 193.839844 208.242188 195.660156 C 208.242188 197.476562 209.722656 198.953125 211.550781 198.953125 L 214.855469 198.953125 L 214.855469 192.367188 M 167.085938 158.835938 L 160.472656 158.835938 L 160.472656 162.132812 C 160.472656 163.949219 161.953125 165.425781 163.777344 165.425781 C 165.605469 165.425781 167.085938 163.949219 167.085938 162.132812 L 167.085938 158.835938 "/>
</g>
</svg>
